<svg xmlns="http://www.w3.org/2000/svg" width="32" height="32" viewBox="0 0 32 32" style="fill:#fff"><path d="M 16 3.90625 L 4 9.2382812 L 4 28 L 6 28 L 6 10.539062 L 16 6.09375 L 26 10.539062 L 26 28 L 28 28 L 28 9.2382812 L 16 3.90625 z M 12 14 L 12 15 L 12 20 L 9 20 L 9 21 L 9 28 L 15 28 L 17 28 L 23 28 L 23 20 L 20 20 L 20 14 L 12 14 z M 14 16 L 18 16 L 18 20 L 17 20 L 15 20 L 14 20 L 14 16 z M 11 22 L 12 22 L 15 22 L 15 26 L 11 26 L 11 22 z M 17 22 L 20 22 L 21 22 L 21 26 L 17 26 L 17 22 z"/></svg>