<svg
  xmlns="http://www.w3.org/2000/svg"
  x="0px"
  y="0px"
  width="70"
  height="70"
  viewBox="0 0 50 50"
  style="fill: #26bad7"
>
  <path
    d="M 24.984375 6.9863281 A 1.0001 1.0001 0 0 0 24 8 L 24 11 A 1.0001 1.0001 0 1 0 26 11 L 26 8 A 1.0001 1.0001 0 0 0 24.984375 6.9863281 z M 16.503906 10.505859 A 1.0001 1.0001 0 0 0 15.808594 12.222656 L 17.929688 14.34375 A 1.0001 1.0001 0 1 0 19.34375 12.929688 L 17.222656 10.808594 A 1.0001 1.0001 0 0 0 16.503906 10.505859 z M 33.464844 10.505859 A 1.0001 1.0001 0 0 0 32.777344 10.808594 L 30.65625 12.929688 A 1.0001 1.0001 0 1 0 32.070312 14.34375 L 34.191406 12.222656 A 1.0001 1.0001 0 0 0 33.464844 10.505859 z M 25 14 C 21.698136 14 19 16.698136 19 20 C 19 23.301864 21.698136 26 25 26 C 28.301864 26 31 23.301864 31 20 C 31 16.698136 28.301864 14 25 14 z M 25 16 C 27.220984 16 29 17.779016 29 20 C 29 22.220984 27.220984 24 25 24 C 22.779016 24 21 22.220984 21 20 C 21 17.779016 22.779016 16 25 16 z M 13 19 A 1.0001 1.0001 0 1 0 13 21 L 16 21 A 1.0001 1.0001 0 1 0 16 19 L 13 19 z M 34 19 A 1.0001 1.0001 0 1 0 34 21 L 37 21 A 1.0001 1.0001 0 1 0 37 19 L 34 19 z M 9 23 C 6.2504209 23 4 25.250421 4 28 C 4 30.749579 6.2504209 33 9 33 C 11.749579 33 14 30.749579 14 28 C 14 25.250421 11.749579 23 9 23 z M 41 23 C 38.250421 23 36 25.250421 36 28 C 36 30.749579 38.250421 33 41 33 C 43.749579 33 46 30.749579 46 28 C 46 25.250421 43.749579 23 41 23 z M 9 25 C 10.668699 25 12 26.331301 12 28 C 12 29.668699 10.668699 31 9 31 C 7.3313011 31 6 29.668699 6 28 C 6 26.331301 7.3313011 25 9 25 z M 41 25 C 42.668699 25 44 26.331301 44 28 C 44 29.668699 42.668699 31 41 31 C 39.331301 31 38 29.668699 38 28 C 38 26.331301 39.331301 25 41 25 z M 21 28 C 17.704545 28 15 30.704545 15 34 L 15 35.972656 C 14.187108 35.36982 13.192854 35 12.111328 35 L 9 35 L 5.8886719 35 C 3.2042457 35 1 37.204246 1 39.888672 L 1 42 L 3 42 L 3 39.888672 C 3 38.295098 4.2950981 37 5.8886719 37 L 9 37 L 12.111328 37 C 13.704902 37 15 38.295098 15 39.888672 L 15 41 L 15 42 L 17 42 L 17 39.888672 L 17 34 C 17 31.795455 18.795455 30 21 30 L 29 30 C 31.204545 30 33 31.795455 33 34 L 33 39.888672 L 33 42 L 35 42 L 35 39.888672 C 35 38.295098 36.295098 37 37.888672 37 L 41 37 L 44.111328 37 C 45.704902 37 47 38.295098 47 39.888672 L 47 42 L 49 42 L 49 39.888672 C 49 37.204246 46.795754 35 44.111328 35 L 41 35 L 37.888672 35 C 36.807146 35 35.812892 35.36982 35 35.972656 L 35 34 C 35 30.704545 32.295455 28 29 28 L 21 28 z"
  ></path>
</svg>