<svg xmlns="http://www.w3.org/2000/svg" width="64" height="64" x="0" y="0" viewBox="0 0 60 60" style="fill:#fff"><path d="M57.92291,24.61792c-0.05084-0.12274-0.12415-0.23346-0.21674-0.32581l-8.99915-8.99915	c-0.39063-0.39063-1.02344-0.39063-1.41406,0s-0.39063,1.02344,0,1.41406L54.58594,24H38V1c0-0.55273-0.44775-1-1-1H5	C4.98199,0,4.9671,0.00928,4.94934,0.01019C4.85211,0.01514,4.75708,0.03406,4.6637,0.06781	c-0.02338,0.00842-0.04773,0.01233-0.07025,0.0224C4.58484,0.09406,4.57544,0.09448,4.56689,0.09863	C4.47028,0.1452,4.38647,0.20844,4.31152,0.28015C4.29224,0.29858,4.27856,0.32043,4.2608,0.34033	C4.20038,0.40814,4.15033,0.48206,4.11041,0.56335C4.09564,0.59332,4.08173,0.6217,4.06995,0.65332C4.02887,0.76331,4,0.8783,4,1v46	c0,0.14807,0.03632,0.28583,0.09399,0.41223c0.01654,0.03644,0.04529,0.06384,0.0661,0.09808	c0.05231,0.08569,0.10913,0.16528,0.18402,0.23145c0.01282,0.01141,0.01794,0.02869,0.03137,0.03949l15,12	C19.55615,59.92578,19.77734,60,20,60c0.14746,0,0.29541-0.03223,0.43311-0.09863C20.77979,59.73438,21,59.38477,21,59V48h16	c0.55225,0,1-0.44727,1-1V26h16.58594l-7.29297,7.29297c-0.39063,0.39063-0.39063,1.02344,0,1.41406	C47.48828,34.90234,47.74414,35,48,35s0.51172-0.09766,0.70703-0.29297l8.99915-8.99915	c0.09259-0.09235,0.16589-0.20306,0.21667-0.32581C58.02393,25.1377,58.02399,24.8623,57.92291,24.61792z M19,56.91895L6,46.51953	V3.08105l13,10.39941V56.91895z M36,46H21V13c0-0.30371-0.13818-0.59082-0.37549-0.78125L7.85107,2H36v22H26	c-0.55225,0-1,0.44727-1,1s0.44775,1,1,1h10V46z"/></svg>